<svg width="410" height="404" viewBox="0 0 135.46666 128.01204" fill="none" xmlns="http://www.w3.org/2000/svg">
  <g transform="translate(0,3.7041668)">
    <path style="fill:#e44d26;fill-opacity:1;stroke:#efefee;stroke-width:21.2109;stroke-linecap:round;stroke-linejoin:round;stroke-opacity:0" d="m 67.932482,113.00398 -0.0022,-0.002 -24.992928,-24.822421 c 0.0038,-10e-4 0.0073,-0.003 0.01109,-0.004 0.687661,-0.2155 1.358267,-0.46693 2.019298,-0.73661 0.151455,-0.0617 0.304418,-0.11927 0.454417,-0.18373 0.61774,-0.26586 1.219916,-0.55916 1.811274,-0.87047 0.18903,-0.0993 0.376894,-0.19891 0.563119,-0.30266 0.54663,-0.30532 1.081376,-0.62865 1.602394,-0.9715 0.220186,-0.14443 0.435077,-0.29459 0.650507,-0.44546 0.450077,-0.31624 0.891933,-0.64284 1.320196,-0.98642 0.271721,-0.21719 0.53369,-0.44409 0.796296,-0.67182 0.264547,-0.23028 0.523464,-0.4665 0.77839,-0.7072 0.423359,-0.3982 0.830617,-0.81059 1.226416,-1.23622 0.147701,-0.15945 0.294507,-0.31941 0.438218,-0.48255 0.523477,-0.59199 1.017667,-1.20776 1.486019,-1.84623 0.03074,-0.0421 0.06329,-0.0827 0.09378,-0.1249 3.105539,-4.28733 4.954253,-9.5497 4.954253,-15.27157 0.138831,-17.74412 -9.055983,-25.51675 -26.662252,-26.00321 -7.543227,0.005 -14.655391,3.47601 -19.245365,9.3927 -1.55768,0.64347 -3.045264,1.42059 -4.432057,2.33986 C 18.202915,23.6709 41.477787,6.20693 67.930286,6.20299 c 26.477716,0.0135 49.762054,17.51868 57.130354,42.950489 -1.41876,-0.95279 -2.94382,-1.75739 -4.54374,-2.41958 -4.58956,-5.92026 -11.70378,-9.39396 -19.24963,-9.39909 -17.716228,0.86655 -26.655296,7.81724 -26.676703,26.00327 0,6.7723 2.581959,12.90434 6.791095,17.52575 0.08,0.0882 0.15919,0.17723 0.24043,0.26429 0.4162,0.44456 0.84743,0.8722 1.29377,1.28652 0.18436,0.17172 0.36995,0.3418 0.55928,0.50813 0.37909,0.33195 0.76642,0.65239 1.1646,0.96212 0.29054,0.22672 0.5859,0.4472 0.88624,0.66159 0.33569,0.23892 0.67531,0.47047 1.02265,0.69356 0.3955,0.25471 0.79804,0.49897 1.20809,0.73235 0.28777,0.16342 0.57762,0.3214 0.87217,0.47403 0.49252,0.25572 0.9932,0.49811 1.50393,0.72255 0.24661,0.10823 0.49539,0.21043 0.74599,0.31118 0.58087,0.23378 1.16899,0.45364 1.77035,0.64582 0.003,8.7e-4 0.006,0.002 0.009,0.003 l -24.374427,24.532711 -0.339749,0.34188 c -0.0039,0 -0.0077,4.4e-4 -0.0115,4.4e-4 z" />
    <path style="fill:#8acf17;fill-opacity:1;stroke:#efefee;stroke-width:21.2109;stroke-linecap:round;stroke-linejoin:round;stroke-opacity:0" d="M 59.411361,51.590724 C 55.994926,42.084099 47.561441,37.69617 34.480582,37.334747 c -7.543226,0.005 -14.655363,3.476019 -19.245336,9.392708 -0.702704,0.290285 -1.388468,0.612103 -2.059823,0.957564 A 23.721267,25.3005 0 0 1 35.905302,29.593102 23.721267,25.3005 0 0 1 59.411361,51.590724 Z" />
    <path style="fill:#8acf17;fill-opacity:1;stroke:#efefee;stroke-width:21.2109;stroke-linecap:round;stroke-linejoin:round;stroke-opacity:0" d="m 76.468199,51.217622 a 23.721267,25.3005 0 0 1 23.466269,-21.62452 23.721267,25.3005 0 0 1 22.745382,18.153414 c -0.70373,-0.367049 -1.42444,-0.707104 -2.16318,-1.012859 -4.58956,-5.920259 -11.70362,-9.39378 -19.24947,-9.39891 -13.049136,0.63827 -21.329694,4.584541 -24.799001,13.882875 z" />
    <path style="fill:#8acf17;fill-opacity:1;stroke:#efefee;stroke-width:30.5059;stroke-linecap:round;stroke-linejoin:round;stroke-opacity:0" d="m 67.932286,113.00403 -0.0021,-0.002 -0.205671,-0.20464 a 28.512243,23.894825 0 0 1 -0.04134,-0.96997 28.512243,23.894825 0 0 1 24.973669,-23.698811 c 2.64e-4,1.25e-4 7.93e-4,2.65e-4 0.0011,5.3e-4 l -24.374221,24.532871 -0.339513,0.34158 c -0.0039,0 -0.0081,5.3e-4 -0.01188,5.3e-4 z" />
  </g>
</svg>
